<?xml version="1.0" encoding="UTF-8"?>
<svg id="Layer_1" data-name="Layer 1" xmlns="http://www.w3.org/2000/svg" xmlns:xlink="http://www.w3.org/1999/xlink" version="1.1" viewBox="0 0 241.2 240.1">
  <defs>
    <style>
      .cls-1 {
        fill: #27235d;
      }

      .cls-1, .cls-2 {
        stroke-width: 0px;
      }

      .cls-2 {
        fill: url(#linear-gradient);
      }
    </style>
    <linearGradient id="linear-gradient" x1="50.9" y1="-142.4" x2="177.7" y2="-142.4" gradientTransform="translate(2 -51) scale(1 -1)" gradientUnits="userSpaceOnUse">
      <stop offset="0" stop-color="#7c59a4"/>
      <stop offset=".5" stop-color="#647aba"/>
      <stop offset="1" stop-color="#3bc5f3"/>
    </linearGradient>
  </defs>
  <path class="cls-2" d="M161.1,46.5h18.6v-18.6h-18.6v18.6ZM161.1.2v18.6h18.6V.2h-18.6ZM161.1,74.2h18.6v-18.4h-18.6v18.4ZM161.1,128.4h18.6v-44.7h-18.6v44.7ZM135.3,46.5h18.6v-18.6h-18.6s0,18.6,0,18.6ZM135.3,159.1h18.6V55.8h-18.6s0,103.3,0,103.3ZM107.1,102.1h18.4v-18.4h-18.6v18.4h.2ZM107.1,18.6h18.4V0h-18.6v18.6h.2ZM107.1,74.2h18.4V27.9h-18.6v46.3h.2ZM107.1,182.9h18.4v-73.1h-18.6v73.1h.2ZM52.9,46.5h18.6v-18.6h-18.6v18.6ZM52.9,18.6h18.6V0h-18.6v18.6ZM52.9,128.4h18.6V55.8h-18.6v72.6ZM78.7,159.1h18.6V27.9h-18.6s0,131.2,0,131.2Z"/>
  <g>
    <path class="cls-1" d="M29,198.9v7.6H8.9v10h14.1v7.7h-14.1v15.5H-.3v-40.8h29.3Z"/>
    <path class="cls-1" d="M61.2,224c0,9.5-6.8,16-16.8,16s-16.8-6.5-16.8-16,6.8-16,16.8-16,16.8,6.4,16.8,16ZM36.5,224.2c0,5.2,3.2,8.6,7.9,8.6s7.8-3.5,7.8-8.6-3.2-8.6-7.8-8.6-7.9,3.5-7.9,8.6Z"/>
    <path class="cls-1" d="M85.1,208v7.9c-6.4-.6-10.4,3.4-10.4,8.7v15.1h-9v-31.4h9v5.7c2.1-3.8,5.7-5.9,10.4-6Z"/>
    <path class="cls-1" d="M111,238c-2.3,1.3-5.3,2.1-8.2,2.1-5.6,0-9.8-3.2-9.8-9.7v-14.5h-4.4v-7.9h4.4v-6.9h8.9v6.9h8.5v8h-8.5v13c0,2.6,1.1,3.7,3,3.6,1.2,0,2.5-.4,4.2-1.2l1.9,6.6h0Z"/>
    <path class="cls-1" d="M133.4,239.7v-3.7c-2.1,2.6-5.5,4.1-9.8,4.1-6.7,0-10.8-4.1-10.8-9.8s4.2-9.4,11.9-9.4h8.6v-.6c0-3.3-2.2-5.3-6.5-5.3s-6.1.9-9.3,2.8l-2.8-6.2c4.6-2.3,8.7-3.6,14.2-3.6,8.4,0,13.2,4.2,13.3,11.3v20.5h-8.8ZM133.3,229v-2.8h-7c-3.4,0-5.2,1.1-5.2,3.6s1.9,4,4.9,4,6.8-2.1,7.3-4.7h0Z"/>
    <path class="cls-1" d="M179,220v19.7h-9v-17.1c0-4-2.3-6.4-6.2-6.4s-7.2,3.4-7.2,8.1v15.5h-9v-31.4h9v5.5c2.2-3.9,6-5.8,10.9-5.8s11.5,4.7,11.5,12h0Z"/>
    <path class="cls-1" d="M194.4,208.4v31.4h-9v-31.4h9ZM194.3,199.4c0,2.5-1.8,4.5-4.4,4.5s-4.4-1.9-4.4-4.5,1.8-4.5,4.4-4.5,4.4,1.9,4.4,4.5Z"/>
    <path class="cls-1" d="M208.4,208.4l5.8,9.5,6.1-9.5h9.8l-9.9,15.2,10.7,16.1h-10.3l-6.3-10.3-6.9,10.3h-9.9l10.9-16-10.1-15.4h10.3-.2Z"/>
    <path class="cls-1" d="M240.9,211.8c0,2.4-1.9,4.4-4.4,4.4s-4.3-2-4.3-4.4,1.9-4.4,4.4-4.4,4.3,1.9,4.3,4.4ZM240.1,211.8c0-1.9-1.5-3.5-3.6-3.5s-3.6,1.6-3.6,3.6,1.5,3.5,3.5,3.5,3.6-1.6,3.6-3.6h.1ZM237.6,212.4l1,1.4h-.9l-.8-1.3h-1.1v1.3h-.8v-4.3h1.8c1.1,0,1.7.5,1.7,1.5s-.3,1.2-.9,1.4h0ZM235.7,211.9h1c.6,0,1-.3,1-.9s-.4-.8-1-.8h-1v1.7Z"/>
  </g>
</svg>